<mxfile host="app.diagrams.net" modified="2024-02-10T19:03:41.668Z" agent="Mozilla/5.0 (Windows NT 10.0; Win64; x64) AppleWebKit/537.36 (KHTML, like Gecko) Chrome/121.0.0.0 Safari/537.36" etag="w6aYM37cnuxnZHqgl4s6" version="23.1.2" type="device">
  <diagram name="Page-1" id="GZW0tfszlG80qLNn7i-J">
    <mxGraphModel dx="2250" dy="743" grid="1" gridSize="10" guides="1" tooltips="1" connect="1" arrows="1" fold="1" page="1" pageScale="1" pageWidth="850" pageHeight="1100" math="0" shadow="0">
      <root>
        <mxCell id="0" />
        <mxCell id="1" parent="0" />
        <mxCell id="WKujFb5WWhuqKsfGvpPh-1" value="" style="rounded=1;whiteSpace=wrap;html=1;" parent="1" vertex="1">
          <mxGeometry x="230" y="50" width="300" height="280" as="geometry" />
        </mxCell>
        <mxCell id="WKujFb5WWhuqKsfGvpPh-2" value="&lt;font style=&quot;font-size: 8px;&quot;&gt;&amp;nbsp; &amp;nbsp; &amp;nbsp; &amp;nbsp; &amp;nbsp; &amp;nbsp; &amp;nbsp; &amp;nbsp; &amp;nbsp; &amp;nbsp; &amp;nbsp; &amp;nbsp; &amp;nbsp; &amp;nbsp; &amp;nbsp;home&amp;nbsp; |&amp;nbsp; about us | contact us |&amp;nbsp; &amp;nbsp; &amp;nbsp; &amp;nbsp; &amp;nbsp; &amp;nbsp; login&lt;/font&gt;" style="rounded=0;whiteSpace=wrap;html=1;" parent="1" vertex="1">
          <mxGeometry x="260" y="60" width="240" height="20" as="geometry" />
        </mxCell>
        <mxCell id="WKujFb5WWhuqKsfGvpPh-4" value="" style="rounded=0;whiteSpace=wrap;html=1;" parent="1" vertex="1">
          <mxGeometry x="240" y="90" width="280" height="60" as="geometry" />
        </mxCell>
        <mxCell id="WKujFb5WWhuqKsfGvpPh-5" value="&lt;font color=&quot;#5e84ff&quot;&gt;&lt;span style=&quot;font-size: 8px;&quot;&gt;card&amp;nbsp; 1&lt;/span&gt;&lt;/font&gt;" style="rounded=1;whiteSpace=wrap;html=1;" parent="1" vertex="1">
          <mxGeometry x="270" y="170" width="40" height="40" as="geometry" />
        </mxCell>
        <mxCell id="WKujFb5WWhuqKsfGvpPh-7" value="&lt;font style=&quot;border-color: var(--border-color); font-family: Helvetica; font-size: 12px; font-style: normal; font-variant-ligatures: normal; font-variant-caps: normal; font-weight: 400; letter-spacing: normal; orphans: 2; text-align: center; text-indent: 0px; text-transform: none; widows: 2; word-spacing: 0px; -webkit-text-stroke-width: 0px; background-color: rgb(251, 251, 251); text-decoration-thickness: initial; text-decoration-style: initial; text-decoration-color: initial;&quot; color=&quot;#5e84ff&quot;&gt;&lt;span style=&quot;border-color: var(--border-color); font-size: 8px;&quot;&gt;card&amp;nbsp; 2&lt;/span&gt;&lt;/font&gt;" style="rounded=1;whiteSpace=wrap;html=1;" parent="1" vertex="1">
          <mxGeometry x="360" y="170" width="40" height="40" as="geometry" />
        </mxCell>
        <mxCell id="WKujFb5WWhuqKsfGvpPh-8" value="&lt;font style=&quot;border-color: var(--border-color); font-family: Helvetica; font-size: 12px; font-style: normal; font-variant-ligatures: normal; font-variant-caps: normal; font-weight: 400; letter-spacing: normal; orphans: 2; text-align: center; text-indent: 0px; text-transform: none; widows: 2; word-spacing: 0px; -webkit-text-stroke-width: 0px; text-decoration-thickness: initial; text-decoration-style: initial; text-decoration-color: initial; background-color: rgb(251, 251, 251);&quot; color=&quot;#5e84ff&quot;&gt;&lt;span style=&quot;border-color: var(--border-color); font-size: 8px;&quot;&gt;card&amp;nbsp; 3&lt;/span&gt;&lt;/font&gt;" style="rounded=1;whiteSpace=wrap;html=1;" parent="1" vertex="1">
          <mxGeometry x="450" y="170" width="40" height="40" as="geometry" />
        </mxCell>
        <mxCell id="WKujFb5WWhuqKsfGvpPh-9" value="&lt;font color=&quot;#24a0ff&quot; style=&quot;font-size: 8px;&quot;&gt;footer&lt;/font&gt;" style="rounded=0;whiteSpace=wrap;html=1;" parent="1" vertex="1">
          <mxGeometry x="240" y="290" width="270" height="20" as="geometry" />
        </mxCell>
        <mxCell id="WKujFb5WWhuqKsfGvpPh-11" value="&lt;font color=&quot;#5e84ff&quot; style=&quot;font-size: 8px;&quot;&gt;addvertisement&lt;br&gt;slider&lt;br&gt;&lt;/font&gt;" style="text;html=1;align=center;verticalAlign=middle;resizable=0;points=[];autosize=1;strokeColor=none;fillColor=none;" parent="1" vertex="1">
          <mxGeometry x="335" y="100" width="80" height="40" as="geometry" />
        </mxCell>
        <mxCell id="WKujFb5WWhuqKsfGvpPh-13" value="" style="ellipse;whiteSpace=wrap;html=1;aspect=fixed;" parent="1" vertex="1">
          <mxGeometry x="290" y="150" as="geometry" />
        </mxCell>
        <mxCell id="WKujFb5WWhuqKsfGvpPh-16" value="&lt;font color=&quot;#308aff&quot;&gt;about us&lt;/font&gt;" style="rounded=0;whiteSpace=wrap;html=1;" parent="1" vertex="1">
          <mxGeometry x="240" y="220" width="280" height="60" as="geometry" />
        </mxCell>
        <mxCell id="WKujFb5WWhuqKsfGvpPh-17" value="&lt;font style=&quot;font-size: 8px;&quot;&gt;logo&lt;/font&gt;" style="ellipse;whiteSpace=wrap;html=1;" parent="1" vertex="1">
          <mxGeometry x="260" y="60" width="30" height="20" as="geometry" />
        </mxCell>
        <mxCell id="WKujFb5WWhuqKsfGvpPh-18" value="&lt;font style=&quot;font-size: 8px;&quot;&gt;login&lt;/font&gt;" style="rounded=0;whiteSpace=wrap;html=1;" parent="1" vertex="1">
          <mxGeometry x="460" y="65" width="30" height="10" as="geometry" />
        </mxCell>
        <mxCell id="WKujFb5WWhuqKsfGvpPh-19" value="" style="rounded=1;whiteSpace=wrap;html=1;" parent="1" vertex="1">
          <mxGeometry x="590" y="50" width="180" height="170" as="geometry" />
        </mxCell>
        <mxCell id="WKujFb5WWhuqKsfGvpPh-21" value="&lt;font color=&quot;#24a0ff&quot; style=&quot;font-size: 8px;&quot;&gt;footer&lt;/font&gt;" style="rounded=0;whiteSpace=wrap;html=1;" parent="1" vertex="1">
          <mxGeometry x="601.25" y="180" width="157.5" height="20" as="geometry" />
        </mxCell>
        <mxCell id="WKujFb5WWhuqKsfGvpPh-22" value="login form" style="rounded=0;whiteSpace=wrap;html=1;" parent="1" vertex="1">
          <mxGeometry x="680" y="80" width="79" height="90" as="geometry" />
        </mxCell>
        <mxCell id="WKujFb5WWhuqKsfGvpPh-23" value="&lt;font style=&quot;font-size: 8px;&quot;&gt;logo&lt;/font&gt;" style="ellipse;whiteSpace=wrap;html=1;" parent="1" vertex="1">
          <mxGeometry x="601.25" y="65" width="30" height="20" as="geometry" />
        </mxCell>
        <mxCell id="WKujFb5WWhuqKsfGvpPh-25" value="" style="endArrow=classic;html=1;rounded=0;entryX=-0.022;entryY=0.17;entryDx=0;entryDy=0;entryPerimeter=0;fontColor=#3BFF5B;" parent="1" target="WKujFb5WWhuqKsfGvpPh-19" edge="1">
          <mxGeometry width="50" height="50" relative="1" as="geometry">
            <mxPoint x="490" y="70" as="sourcePoint" />
            <mxPoint x="540" y="20" as="targetPoint" />
          </mxGeometry>
        </mxCell>
        <mxCell id="WKujFb5WWhuqKsfGvpPh-61" value="z" style="edgeStyle=orthogonalEdgeStyle;rounded=0;orthogonalLoop=1;jettySize=auto;html=1;exitX=0.75;exitY=0;exitDx=0;exitDy=0;" parent="1" source="WKujFb5WWhuqKsfGvpPh-26" target="WKujFb5WWhuqKsfGvpPh-1" edge="1">
          <mxGeometry relative="1" as="geometry" />
        </mxCell>
        <mxCell id="WKujFb5WWhuqKsfGvpPh-26" value="&lt;font style=&quot;font-size: 8px;&quot;&gt;home&lt;/font&gt;" style="rounded=0;whiteSpace=wrap;html=1;" parent="1" vertex="1">
          <mxGeometry x="640" y="140" width="30" height="10" as="geometry" />
        </mxCell>
        <mxCell id="WKujFb5WWhuqKsfGvpPh-27" value="" style="rounded=0;whiteSpace=wrap;html=1;" parent="1" vertex="1">
          <mxGeometry x="560" y="360" width="120" height="150" as="geometry" />
        </mxCell>
        <mxCell id="WKujFb5WWhuqKsfGvpPh-29" value="&lt;br&gt;&lt;span style=&quot;border-color: var(--border-color); font-family: Helvetica; font-style: normal; font-variant-ligatures: normal; font-variant-caps: normal; font-weight: 400; letter-spacing: normal; orphans: 2; text-indent: 0px; text-transform: none; widows: 2; word-spacing: 0px; -webkit-text-stroke-width: 0px; text-decoration-thickness: initial; text-decoration-style: initial; text-decoration-color: initial; color: rgb(255, 116, 46); font-size: 8px; text-align: center; background-color: rgb(251, 251, 251); float: none; display: inline !important;&quot;&gt;fields:-&lt;br&gt;mobile number, otp&lt;br&gt;&lt;/span&gt;&lt;br&gt;" style="rounded=0;whiteSpace=wrap;html=1;" parent="1" vertex="1">
          <mxGeometry x="410" y="350" width="120" height="160" as="geometry" />
        </mxCell>
        <mxCell id="WKujFb5WWhuqKsfGvpPh-30" value="" style="rounded=0;whiteSpace=wrap;html=1;" parent="1" vertex="1">
          <mxGeometry x="720" y="350" width="120" height="150" as="geometry" />
        </mxCell>
        <mxCell id="WKujFb5WWhuqKsfGvpPh-31" value="" style="rounded=0;whiteSpace=wrap;html=1;" parent="1" vertex="1">
          <mxGeometry x="250" y="360" width="120" height="150" as="geometry" />
        </mxCell>
        <mxCell id="WKujFb5WWhuqKsfGvpPh-33" value="" style="rounded=0;whiteSpace=wrap;html=1;" parent="1" vertex="1">
          <mxGeometry x="570" y="410" width="100" height="10" as="geometry" />
        </mxCell>
        <mxCell id="WKujFb5WWhuqKsfGvpPh-34" value="&lt;font color=&quot;#ff1212&quot; style=&quot;font-size: 8px;&quot;&gt;Login form&lt;/font&gt;" style="text;html=1;align=center;verticalAlign=middle;resizable=0;points=[];autosize=1;strokeColor=none;fillColor=none;" parent="1" vertex="1">
          <mxGeometry x="560" y="360" width="60" height="30" as="geometry" />
        </mxCell>
        <mxCell id="WKujFb5WWhuqKsfGvpPh-35" value="&lt;span style=&quot;font-family: Helvetica; font-size: 8px; font-style: normal; font-variant-ligatures: normal; font-variant-caps: normal; font-weight: 400; letter-spacing: normal; orphans: 2; text-align: center; text-indent: 0px; text-transform: none; widows: 2; word-spacing: 0px; -webkit-text-stroke-width: 0px; background-color: rgb(251, 251, 251); text-decoration-thickness: initial; text-decoration-style: initial; text-decoration-color: initial; float: none; display: inline !important;&quot;&gt;&lt;font color=&quot;#250dff&quot;&gt;Mobile number&lt;/font&gt;&lt;/span&gt;" style="text;whiteSpace=wrap;html=1;" parent="1" vertex="1">
          <mxGeometry x="570" y="390" width="70" height="40" as="geometry" />
        </mxCell>
        <mxCell id="WKujFb5WWhuqKsfGvpPh-36" value="&lt;span style=&quot;font-family: Helvetica; font-size: 8px; font-style: normal; font-variant-ligatures: normal; font-variant-caps: normal; font-weight: 400; letter-spacing: normal; orphans: 2; text-align: center; text-indent: 0px; text-transform: none; widows: 2; word-spacing: 0px; -webkit-text-stroke-width: 0px; background-color: rgb(251, 251, 251); text-decoration-thickness: initial; text-decoration-style: initial; text-decoration-color: initial; float: none; display: inline !important;&quot;&gt;&lt;font color=&quot;#250dff&quot;&gt;Mobile number&lt;/font&gt;&lt;/span&gt;" style="text;whiteSpace=wrap;html=1;" parent="1" vertex="1">
          <mxGeometry x="570" y="390" width="70" height="40" as="geometry" />
        </mxCell>
        <mxCell id="WKujFb5WWhuqKsfGvpPh-37" value="&lt;span style=&quot;font-family: Helvetica; font-size: 8px; font-style: normal; font-variant-ligatures: normal; font-variant-caps: normal; font-weight: 400; letter-spacing: normal; orphans: 2; text-align: center; text-indent: 0px; text-transform: none; widows: 2; word-spacing: 0px; -webkit-text-stroke-width: 0px; background-color: rgb(251, 251, 251); text-decoration-thickness: initial; text-decoration-style: initial; text-decoration-color: initial; float: none; display: inline !important;&quot;&gt;&lt;font color=&quot;#250dff&quot;&gt;Password&lt;/font&gt;&lt;/span&gt;" style="text;whiteSpace=wrap;html=1;" parent="1" vertex="1">
          <mxGeometry x="570" y="420" width="70" height="40" as="geometry" />
        </mxCell>
        <mxCell id="WKujFb5WWhuqKsfGvpPh-38" value="" style="rounded=0;whiteSpace=wrap;html=1;" parent="1" vertex="1">
          <mxGeometry x="570" y="440" width="100" height="10" as="geometry" />
        </mxCell>
        <mxCell id="WKujFb5WWhuqKsfGvpPh-40" value="" style="whiteSpace=wrap;html=1;aspect=fixed;" parent="1" vertex="1">
          <mxGeometry x="565" y="460" width="10" height="10" as="geometry" />
        </mxCell>
        <mxCell id="WKujFb5WWhuqKsfGvpPh-42" value="&lt;span style=&quot;color: rgb(37, 13, 255); font-family: Helvetica; font-style: normal; font-variant-ligatures: normal; font-variant-caps: normal; font-weight: 400; letter-spacing: normal; orphans: 2; text-align: center; text-indent: 0px; text-transform: none; widows: 2; word-spacing: 0px; -webkit-text-stroke-width: 0px; background-color: rgb(251, 251, 251); text-decoration-thickness: initial; text-decoration-style: initial; text-decoration-color: initial; float: none; display: inline !important;&quot;&gt;&lt;font style=&quot;font-size: 6px;&quot;&gt;rember me&lt;/font&gt;&lt;/span&gt;" style="text;whiteSpace=wrap;html=1;" parent="1" vertex="1">
          <mxGeometry x="575" y="450" width="70" height="40" as="geometry" />
        </mxCell>
        <mxCell id="WKujFb5WWhuqKsfGvpPh-43" value="&lt;span style=&quot;font-family: Helvetica; font-style: normal; font-variant-ligatures: normal; font-variant-caps: normal; font-weight: 400; letter-spacing: normal; orphans: 2; text-align: center; text-indent: 0px; text-transform: none; widows: 2; word-spacing: 0px; -webkit-text-stroke-width: 0px; background-color: rgb(251, 251, 251); text-decoration-thickness: initial; text-decoration-style: initial; text-decoration-color: initial; float: none; display: inline !important;&quot;&gt;&lt;font color=&quot;#2164ff&quot; style=&quot;font-size: 6px;&quot;&gt;forgot pwd?(link)&lt;/font&gt;&lt;/span&gt;" style="text;whiteSpace=wrap;html=1;" parent="1" vertex="1">
          <mxGeometry x="630" y="450" width="70" height="30" as="geometry" />
        </mxCell>
        <mxCell id="WKujFb5WWhuqKsfGvpPh-44" value="" style="rounded=0;whiteSpace=wrap;html=1;" parent="1" vertex="1">
          <mxGeometry x="590" y="480" width="50" height="10" as="geometry" />
        </mxCell>
        <mxCell id="WKujFb5WWhuqKsfGvpPh-45" value="&lt;span style=&quot;color: rgb(37, 13, 255); font-family: Helvetica; font-style: normal; font-variant-ligatures: normal; font-variant-caps: normal; font-weight: 400; letter-spacing: normal; orphans: 2; text-align: center; text-indent: 0px; text-transform: none; widows: 2; word-spacing: 0px; -webkit-text-stroke-width: 0px; background-color: rgb(251, 251, 251); text-decoration-thickness: initial; text-decoration-style: initial; text-decoration-color: initial; float: none; display: inline !important;&quot;&gt;&lt;font style=&quot;font-size: 6px;&quot;&gt;login&lt;/font&gt;&lt;/span&gt;" style="text;whiteSpace=wrap;html=1;" parent="1" vertex="1">
          <mxGeometry x="610" y="470" width="70" height="30" as="geometry" />
        </mxCell>
        <mxCell id="WKujFb5WWhuqKsfGvpPh-46" value="&lt;span style=&quot;font-family: Helvetica; font-size: 6px; font-style: normal; font-variant-ligatures: normal; font-variant-caps: normal; font-weight: 400; letter-spacing: normal; orphans: 2; text-align: center; text-indent: 0px; text-transform: none; widows: 2; word-spacing: 0px; -webkit-text-stroke-width: 0px; background-color: rgb(251, 251, 251); text-decoration-thickness: initial; text-decoration-style: initial; text-decoration-color: initial; float: none; display: inline !important;&quot;&gt;&lt;font color=&quot;#2994ff&quot;&gt;don&#39;t have account? sign up(link)&lt;/font&gt;&lt;/span&gt;" style="text;whiteSpace=wrap;html=1;" parent="1" vertex="1">
          <mxGeometry x="580" y="480" width="100" height="10" as="geometry" />
        </mxCell>
        <mxCell id="WKujFb5WWhuqKsfGvpPh-47" value="&lt;span style=&quot;color: rgb(255, 18, 18); font-family: Helvetica; font-size: 8px; font-style: normal; font-variant-ligatures: normal; font-variant-caps: normal; font-weight: 400; letter-spacing: normal; orphans: 2; text-align: center; text-indent: 0px; text-transform: none; widows: 2; word-spacing: 0px; -webkit-text-stroke-width: 0px; background-color: rgb(251, 251, 251); text-decoration-thickness: initial; text-decoration-style: initial; text-decoration-color: initial; float: none; display: inline !important;&quot;&gt;Registration form&lt;/span&gt;" style="text;whiteSpace=wrap;html=1;" parent="1" vertex="1">
          <mxGeometry x="280" y="360" width="70" height="40" as="geometry" />
        </mxCell>
        <mxCell id="WKujFb5WWhuqKsfGvpPh-48" value="&lt;span style=&quot;color: rgb(255, 18, 18); font-family: Helvetica; font-size: 8px; font-style: normal; font-variant-ligatures: normal; font-variant-caps: normal; font-weight: 400; letter-spacing: normal; orphans: 2; text-align: center; text-indent: 0px; text-transform: none; widows: 2; word-spacing: 0px; -webkit-text-stroke-width: 0px; background-color: rgb(251, 251, 251); text-decoration-thickness: initial; text-decoration-style: initial; text-decoration-color: initial; float: none; display: inline !important;&quot;&gt;forgot password form&lt;/span&gt;" style="text;whiteSpace=wrap;html=1;" parent="1" vertex="1">
          <mxGeometry x="745" y="350" width="85" height="40" as="geometry" />
        </mxCell>
        <mxCell id="WKujFb5WWhuqKsfGvpPh-49" value="&lt;span style=&quot;font-family: Helvetica; font-size: 8px; font-style: normal; font-variant-ligatures: normal; font-variant-caps: normal; font-weight: 400; letter-spacing: normal; orphans: 2; text-align: center; text-indent: 0px; text-transform: none; widows: 2; word-spacing: 0px; -webkit-text-stroke-width: 0px; background-color: rgb(251, 251, 251); text-decoration-thickness: initial; text-decoration-style: initial; text-decoration-color: initial; float: none; display: inline !important;&quot;&gt;&lt;font color=&quot;#ff742e&quot;&gt;fields:- mobile number , otp input with otp verify button,new pwd, confirm pwd&lt;/font&gt;&lt;/span&gt;" style="text;whiteSpace=wrap;html=1;" parent="1" vertex="1">
          <mxGeometry x="745" y="370" width="70" height="40" as="geometry" />
        </mxCell>
        <mxCell id="WKujFb5WWhuqKsfGvpPh-50" value="&lt;span style=&quot;font-family: Helvetica; font-size: 8px; font-style: normal; font-variant-ligatures: normal; font-variant-caps: normal; font-weight: 400; letter-spacing: normal; orphans: 2; text-align: center; text-indent: 0px; text-transform: none; widows: 2; word-spacing: 0px; -webkit-text-stroke-width: 0px; background-color: rgb(251, 251, 251); text-decoration-thickness: initial; text-decoration-style: initial; text-decoration-color: initial; float: none; display: inline !important;&quot;&gt;&lt;font color=&quot;#8b52ff&quot;&gt;button:- submit&lt;/font&gt;&lt;/span&gt;" style="text;whiteSpace=wrap;html=1;" parent="1" vertex="1">
          <mxGeometry x="740" y="450" width="90" height="40" as="geometry" />
        </mxCell>
        <mxCell id="WKujFb5WWhuqKsfGvpPh-51" value="&lt;span style=&quot;color: rgb(255, 116, 46); font-family: Helvetica; font-size: 8px; font-style: normal; font-variant-ligatures: normal; font-variant-caps: normal; font-weight: 400; letter-spacing: normal; orphans: 2; text-align: center; text-indent: 0px; text-transform: none; widows: 2; word-spacing: 0px; -webkit-text-stroke-width: 0px; background-color: rgb(251, 251, 251); text-decoration-thickness: initial; text-decoration-style: initial; text-decoration-color: initial; float: none; display: inline !important;&quot;&gt;fields:-name,mobile number (fetched) email,dob,gender,&lt;/span&gt;&lt;font color=&quot;#ff742e&quot; style=&quot;font-size: 8px;&quot;&gt;new pwd, confirm pwd&lt;/font&gt;" style="text;whiteSpace=wrap;html=1;" parent="1" vertex="1">
          <mxGeometry x="280" y="380" width="80" height="40" as="geometry" />
        </mxCell>
        <mxCell id="WKujFb5WWhuqKsfGvpPh-52" value="&lt;span style=&quot;color: rgb(139, 82, 255); font-family: Helvetica; font-size: 8px; font-style: normal; font-variant-ligatures: normal; font-variant-caps: normal; font-weight: 400; letter-spacing: normal; orphans: 2; text-align: center; text-indent: 0px; text-transform: none; widows: 2; word-spacing: 0px; -webkit-text-stroke-width: 0px; background-color: rgb(251, 251, 251); text-decoration-thickness: initial; text-decoration-style: initial; text-decoration-color: initial; float: none; display: inline !important;&quot;&gt;button:- register&lt;/span&gt;" style="text;whiteSpace=wrap;html=1;" parent="1" vertex="1">
          <mxGeometry x="280" y="440" width="90" height="40" as="geometry" />
        </mxCell>
        <mxCell id="WKujFb5WWhuqKsfGvpPh-53" value="&lt;span style=&quot;color: rgb(255, 18, 18); font-family: Helvetica; font-size: 8px; font-style: normal; font-variant-ligatures: normal; font-variant-caps: normal; font-weight: 400; letter-spacing: normal; orphans: 2; text-align: center; text-indent: 0px; text-transform: none; widows: 2; word-spacing: 0px; -webkit-text-stroke-width: 0px; background-color: rgb(251, 251, 251); text-decoration-thickness: initial; text-decoration-style: initial; text-decoration-color: initial; float: none; display: inline !important;&quot;&gt;sign up&lt;/span&gt;" style="text;whiteSpace=wrap;html=1;" parent="1" vertex="1">
          <mxGeometry x="450" y="360" width="90" height="40" as="geometry" />
        </mxCell>
        <mxCell id="WKujFb5WWhuqKsfGvpPh-55" value="" style="rounded=0;whiteSpace=wrap;html=1;" parent="1" vertex="1">
          <mxGeometry x="440" y="470" width="60" height="20" as="geometry" />
        </mxCell>
        <mxCell id="WKujFb5WWhuqKsfGvpPh-56" value="&lt;span style=&quot;color: rgb(139, 82, 255); font-family: Helvetica; font-size: 8px; font-style: normal; font-variant-ligatures: normal; font-variant-caps: normal; font-weight: 400; letter-spacing: normal; orphans: 2; text-align: center; text-indent: 0px; text-transform: none; widows: 2; word-spacing: 0px; -webkit-text-stroke-width: 0px; background-color: rgb(251, 251, 251); text-decoration-thickness: initial; text-decoration-style: initial; text-decoration-color: initial; float: none; display: inline !important;&quot;&gt;button:- verify&lt;/span&gt;" style="text;whiteSpace=wrap;html=1;" parent="1" vertex="1">
          <mxGeometry x="440" y="465" width="90" height="40" as="geometry" />
        </mxCell>
        <mxCell id="WKujFb5WWhuqKsfGvpPh-57" value="" style="endArrow=classic;html=1;rounded=0;entryX=1.039;entryY=0.308;entryDx=0;entryDy=0;entryPerimeter=0;exitX=0.25;exitY=0.813;exitDx=0;exitDy=0;exitPerimeter=0;" parent="1" source="WKujFb5WWhuqKsfGvpPh-29" target="WKujFb5WWhuqKsfGvpPh-52" edge="1">
          <mxGeometry width="50" height="50" relative="1" as="geometry">
            <mxPoint x="420" y="490" as="sourcePoint" />
            <mxPoint x="470" y="440" as="targetPoint" />
          </mxGeometry>
        </mxCell>
        <mxCell id="WKujFb5WWhuqKsfGvpPh-58" value="" style="endArrow=classic;html=1;rounded=0;entryX=1.025;entryY=0.291;entryDx=0;entryDy=0;entryPerimeter=0;exitX=0.001;exitY=0.406;exitDx=0;exitDy=0;exitPerimeter=0;" parent="1" source="WKujFb5WWhuqKsfGvpPh-46" target="WKujFb5WWhuqKsfGvpPh-56" edge="1">
          <mxGeometry width="50" height="50" relative="1" as="geometry">
            <mxPoint x="560" y="500" as="sourcePoint" />
            <mxPoint x="610" y="450" as="targetPoint" />
          </mxGeometry>
        </mxCell>
        <mxCell id="WKujFb5WWhuqKsfGvpPh-63" value="" style="endArrow=classic;html=1;rounded=0;entryX=0.008;entryY=0.613;entryDx=0;entryDy=0;entryPerimeter=0;" parent="1" target="WKujFb5WWhuqKsfGvpPh-30" edge="1">
          <mxGeometry width="50" height="50" relative="1" as="geometry">
            <mxPoint x="680" y="460" as="sourcePoint" />
            <mxPoint x="730" y="410" as="targetPoint" />
          </mxGeometry>
        </mxCell>
        <mxCell id="WKujFb5WWhuqKsfGvpPh-67" value="" style="endArrow=classic;html=1;rounded=0;entryX=1.06;entryY=-0.117;entryDx=0;entryDy=0;entryPerimeter=0;" parent="1" source="WKujFb5WWhuqKsfGvpPh-22" target="WKujFb5WWhuqKsfGvpPh-34" edge="1">
          <mxGeometry width="50" height="50" relative="1" as="geometry">
            <mxPoint x="680" y="330" as="sourcePoint" />
            <mxPoint x="730" y="280" as="targetPoint" />
          </mxGeometry>
        </mxCell>
        <mxCell id="WKujFb5WWhuqKsfGvpPh-68" value="" style="rounded=1;whiteSpace=wrap;html=1;" parent="1" vertex="1">
          <mxGeometry x="125" y="540" width="300" height="280" as="geometry" />
        </mxCell>
        <mxCell id="WKujFb5WWhuqKsfGvpPh-69" value="&lt;font style=&quot;font-size: 8px;&quot;&gt;&amp;nbsp; &amp;nbsp; &amp;nbsp; &amp;nbsp; &amp;nbsp; &amp;nbsp; &amp;nbsp; &amp;nbsp; &amp;nbsp; &amp;nbsp; &amp;nbsp; &amp;nbsp; &amp;nbsp; &amp;nbsp; &amp;nbsp;home&amp;nbsp; |&amp;nbsp; about us | contact us |&amp;nbsp; &amp;nbsp; &amp;nbsp; &amp;nbsp; &amp;nbsp; &amp;nbsp; login&lt;/font&gt;" style="rounded=0;whiteSpace=wrap;html=1;" parent="1" vertex="1">
          <mxGeometry x="160" y="550" width="240" height="20" as="geometry" />
        </mxCell>
        <mxCell id="WKujFb5WWhuqKsfGvpPh-71" value="&lt;font color=&quot;#5e84ff&quot;&gt;&lt;span style=&quot;font-size: 8px;&quot;&gt;send&lt;br&gt;money&lt;br&gt;&lt;/span&gt;&lt;/font&gt;" style="rounded=1;whiteSpace=wrap;html=1;" parent="1" vertex="1">
          <mxGeometry x="165" y="670" width="55" height="40" as="geometry" />
        </mxCell>
        <mxCell id="WKujFb5WWhuqKsfGvpPh-72" value="&lt;font style=&quot;border-color: var(--border-color); font-family: Helvetica; font-size: 12px; font-style: normal; font-variant-ligatures: normal; font-variant-caps: normal; font-weight: 400; letter-spacing: normal; orphans: 2; text-align: center; text-indent: 0px; text-transform: none; widows: 2; word-spacing: 0px; -webkit-text-stroke-width: 0px; background-color: rgb(251, 251, 251); text-decoration-thickness: initial; text-decoration-style: initial; text-decoration-color: initial;&quot; color=&quot;#5e84ff&quot;&gt;&lt;span style=&quot;border-color: var(--border-color); font-size: 8px;&quot;&gt;add&amp;nbsp;&lt;br&gt;money&lt;br&gt;&lt;/span&gt;&lt;/font&gt;" style="rounded=1;whiteSpace=wrap;html=1;" parent="1" vertex="1">
          <mxGeometry x="255" y="670" width="55" height="40" as="geometry" />
        </mxCell>
        <mxCell id="WKujFb5WWhuqKsfGvpPh-73" value="&lt;font style=&quot;border-color: var(--border-color); font-family: Helvetica; font-size: 12px; font-style: normal; font-variant-ligatures: normal; font-variant-caps: normal; font-weight: 400; letter-spacing: normal; orphans: 2; text-align: center; text-indent: 0px; text-transform: none; widows: 2; word-spacing: 0px; -webkit-text-stroke-width: 0px; text-decoration-thickness: initial; text-decoration-style: initial; text-decoration-color: initial; background-color: rgb(251, 251, 251);&quot; color=&quot;#5e84ff&quot;&gt;&lt;span style=&quot;border-color: var(--border-color); font-size: 8px;&quot;&gt;check&amp;nbsp;&lt;br&gt;balance&lt;br&gt;&lt;/span&gt;&lt;/font&gt;" style="rounded=1;whiteSpace=wrap;html=1;" parent="1" vertex="1">
          <mxGeometry x="340" y="670" width="55" height="40" as="geometry" />
        </mxCell>
        <mxCell id="WKujFb5WWhuqKsfGvpPh-74" value="&lt;font color=&quot;#24a0ff&quot; style=&quot;font-size: 8px;&quot;&gt;footer&lt;/font&gt;" style="rounded=0;whiteSpace=wrap;html=1;" parent="1" vertex="1">
          <mxGeometry x="140" y="780" width="270" height="20" as="geometry" />
        </mxCell>
        <mxCell id="WKujFb5WWhuqKsfGvpPh-76" value="" style="ellipse;whiteSpace=wrap;html=1;aspect=fixed;" parent="1" vertex="1">
          <mxGeometry x="195" y="720" as="geometry" />
        </mxCell>
        <mxCell id="WKujFb5WWhuqKsfGvpPh-77" value="&#xa;&lt;span style=&quot;color: rgb(48, 138, 255); font-family: Helvetica; font-size: 12px; font-style: normal; font-variant-ligatures: normal; font-variant-caps: normal; font-weight: 400; letter-spacing: normal; orphans: 2; text-align: center; text-indent: 0px; text-transform: none; widows: 2; word-spacing: 0px; -webkit-text-stroke-width: 0px; background-color: rgb(251, 251, 251); text-decoration-thickness: initial; text-decoration-style: initial; text-decoration-color: initial; float: none; display: inline !important;&quot;&gt;service advertisement&lt;/span&gt;&lt;br style=&quot;border-color: var(--border-color); color: rgb(48, 138, 255); font-family: Helvetica; font-size: 12px; font-style: normal; font-variant-ligatures: normal; font-variant-caps: normal; font-weight: 400; letter-spacing: normal; orphans: 2; text-align: center; text-indent: 0px; text-transform: none; widows: 2; word-spacing: 0px; -webkit-text-stroke-width: 0px; background-color: rgb(251, 251, 251); text-decoration-thickness: initial; text-decoration-style: initial; text-decoration-color: initial;&quot;&gt;&#xa;&#xa;" style="rounded=0;whiteSpace=wrap;html=1;" parent="1" vertex="1">
          <mxGeometry x="135" y="590" width="280" height="60" as="geometry" />
        </mxCell>
        <mxCell id="WKujFb5WWhuqKsfGvpPh-78" value="&lt;font style=&quot;font-size: 8px;&quot;&gt;logo&lt;/font&gt;" style="ellipse;whiteSpace=wrap;html=1;" parent="1" vertex="1">
          <mxGeometry x="160" y="550" width="30" height="20" as="geometry" />
        </mxCell>
        <mxCell id="WKujFb5WWhuqKsfGvpPh-79" value="&lt;font style=&quot;font-size: 8px;&quot;&gt;logout&lt;/font&gt;" style="rounded=0;whiteSpace=wrap;html=1;" parent="1" vertex="1">
          <mxGeometry x="360" y="555" width="30" height="10" as="geometry" />
        </mxCell>
        <mxCell id="WKujFb5WWhuqKsfGvpPh-80" value="" style="endArrow=classic;html=1;rounded=0;entryX=0.898;entryY=-0.008;entryDx=0;entryDy=0;entryPerimeter=0;exitX=0.34;exitY=0.999;exitDx=0;exitDy=0;exitPerimeter=0;" parent="1" source="WKujFb5WWhuqKsfGvpPh-27" target="WKujFb5WWhuqKsfGvpPh-68" edge="1">
          <mxGeometry width="50" height="50" relative="1" as="geometry">
            <mxPoint x="550" y="550" as="sourcePoint" />
            <mxPoint x="600" y="500" as="targetPoint" />
          </mxGeometry>
        </mxCell>
        <mxCell id="WKujFb5WWhuqKsfGvpPh-83" value="&lt;font color=&quot;#5e84ff&quot;&gt;&lt;span style=&quot;font-size: 8px;&quot;&gt;KYC and&amp;nbsp;&lt;br&gt;add benificiary&lt;br&gt;&lt;/span&gt;&lt;/font&gt;" style="rounded=1;whiteSpace=wrap;html=1;" parent="1" vertex="1">
          <mxGeometry x="165" y="720" width="55" height="40" as="geometry" />
        </mxCell>
        <mxCell id="WKujFb5WWhuqKsfGvpPh-84" value="&lt;font color=&quot;#5e84ff&quot;&gt;&lt;span style=&quot;font-size: 8px;&quot;&gt;transaction&lt;br&gt;history&lt;br&gt;&lt;/span&gt;&lt;/font&gt;" style="rounded=1;whiteSpace=wrap;html=1;" parent="1" vertex="1">
          <mxGeometry x="255" y="720" width="55" height="40" as="geometry" />
        </mxCell>
        <mxCell id="WKujFb5WWhuqKsfGvpPh-85" value="&lt;font color=&quot;#5e84ff&quot;&gt;&lt;span style=&quot;font-size: 8px;&quot;&gt;add bank&lt;br&gt;account&lt;br&gt;&lt;/span&gt;&lt;/font&gt;" style="rounded=1;whiteSpace=wrap;html=1;" parent="1" vertex="1">
          <mxGeometry x="340" y="720" width="55" height="40" as="geometry" />
        </mxCell>
        <mxCell id="WKujFb5WWhuqKsfGvpPh-87" value="pay bills" style="rounded=0;whiteSpace=wrap;html=1;" parent="1" vertex="1">
          <mxGeometry x="220" y="620" width="120" height="20" as="geometry" />
        </mxCell>
        <mxCell id="WKujFb5WWhuqKsfGvpPh-88" value="" style="rounded=1;whiteSpace=wrap;html=1;" parent="1" vertex="1">
          <mxGeometry x="480" y="540" width="300" height="280" as="geometry" />
        </mxCell>
        <mxCell id="WKujFb5WWhuqKsfGvpPh-89" value="&lt;font style=&quot;font-size: 8px;&quot;&gt;&amp;nbsp; &amp;nbsp; &amp;nbsp; &amp;nbsp; &amp;nbsp; &amp;nbsp; &amp;nbsp; &amp;nbsp; &amp;nbsp; &amp;nbsp; &amp;nbsp; &amp;nbsp; &amp;nbsp; &amp;nbsp; &amp;nbsp;home&amp;nbsp; |&amp;nbsp; about us | contact us |&amp;nbsp; &amp;nbsp; &amp;nbsp; &amp;nbsp; &amp;nbsp; &amp;nbsp; login&lt;/font&gt;" style="rounded=0;whiteSpace=wrap;html=1;" parent="1" vertex="1">
          <mxGeometry x="515" y="550" width="240" height="20" as="geometry" />
        </mxCell>
        <mxCell id="WKujFb5WWhuqKsfGvpPh-91" value="&lt;font style=&quot;border-color: var(--border-color); font-family: Helvetica; font-size: 12px; font-style: normal; font-variant-ligatures: normal; font-variant-caps: normal; font-weight: 400; letter-spacing: normal; orphans: 2; text-align: center; text-indent: 0px; text-transform: none; widows: 2; word-spacing: 0px; -webkit-text-stroke-width: 0px; background-color: rgb(251, 251, 251); text-decoration-thickness: initial; text-decoration-style: initial; text-decoration-color: initial;&quot; color=&quot;#5e84ff&quot;&gt;&lt;span style=&quot;border-color: var(--border-color); font-size: 8px;&quot;&gt;get all&lt;br&gt;customers&lt;br&gt;&lt;/span&gt;&lt;/font&gt;" style="rounded=1;whiteSpace=wrap;html=1;" parent="1" vertex="1">
          <mxGeometry x="610" y="690" width="40" height="40" as="geometry" />
        </mxCell>
        <mxCell id="WKujFb5WWhuqKsfGvpPh-92" value="&lt;font style=&quot;border-color: var(--border-color); font-family: Helvetica; font-size: 12px; font-style: normal; font-variant-ligatures: normal; font-variant-caps: normal; font-weight: 400; letter-spacing: normal; orphans: 2; text-align: center; text-indent: 0px; text-transform: none; widows: 2; word-spacing: 0px; -webkit-text-stroke-width: 0px; text-decoration-thickness: initial; text-decoration-style: initial; text-decoration-color: initial; background-color: rgb(251, 251, 251);&quot; color=&quot;#5e84ff&quot;&gt;&lt;span style=&quot;border-color: var(--border-color); font-size: 8px;&quot;&gt;customers&lt;br&gt;sessions&lt;br&gt;&lt;/span&gt;&lt;/font&gt;" style="rounded=1;whiteSpace=wrap;html=1;" parent="1" vertex="1">
          <mxGeometry x="710" y="690" width="40" height="40" as="geometry" />
        </mxCell>
        <mxCell id="WKujFb5WWhuqKsfGvpPh-93" value="&lt;font color=&quot;#24a0ff&quot; style=&quot;font-size: 8px;&quot;&gt;footer&lt;/font&gt;" style="rounded=0;whiteSpace=wrap;html=1;" parent="1" vertex="1">
          <mxGeometry x="495" y="770" width="270" height="20" as="geometry" />
        </mxCell>
        <mxCell id="WKujFb5WWhuqKsfGvpPh-94" value="" style="ellipse;whiteSpace=wrap;html=1;aspect=fixed;" parent="1" vertex="1">
          <mxGeometry x="550" y="720" as="geometry" />
        </mxCell>
        <mxCell id="WKujFb5WWhuqKsfGvpPh-95" value="&lt;font color=&quot;#308aff&quot;&gt;&lt;br&gt;&lt;/font&gt;" style="rounded=0;whiteSpace=wrap;html=1;" parent="1" vertex="1">
          <mxGeometry x="490" y="590" width="280" height="70" as="geometry" />
        </mxCell>
        <mxCell id="WKujFb5WWhuqKsfGvpPh-96" value="&lt;font style=&quot;font-size: 8px;&quot;&gt;logo&lt;/font&gt;" style="ellipse;whiteSpace=wrap;html=1;" parent="1" vertex="1">
          <mxGeometry x="515" y="550" width="30" height="20" as="geometry" />
        </mxCell>
        <mxCell id="WKujFb5WWhuqKsfGvpPh-97" value="&lt;font style=&quot;font-size: 8px;&quot;&gt;logout&lt;/font&gt;" style="rounded=0;whiteSpace=wrap;html=1;" parent="1" vertex="1">
          <mxGeometry x="715" y="555" width="30" height="10" as="geometry" />
        </mxCell>
        <mxCell id="WKujFb5WWhuqKsfGvpPh-99" value="&lt;font color=&quot;#5e84ff&quot;&gt;&lt;span style=&quot;font-size: 8px;&quot;&gt;transaction&lt;br&gt;history&lt;br&gt;&lt;/span&gt;&lt;/font&gt;" style="rounded=1;whiteSpace=wrap;html=1;" parent="1" vertex="1">
          <mxGeometry x="520" y="690" width="40" height="40" as="geometry" />
        </mxCell>
        <mxCell id="WKujFb5WWhuqKsfGvpPh-101" value="customer count" style="rounded=0;whiteSpace=wrap;html=1;" parent="1" vertex="1">
          <mxGeometry x="530" y="630" width="200" height="20" as="geometry" />
        </mxCell>
        <mxCell id="WKujFb5WWhuqKsfGvpPh-102" value="tansaction count" style="rounded=0;whiteSpace=wrap;html=1;" parent="1" vertex="1">
          <mxGeometry x="530" y="600" width="200" height="20" as="geometry" />
        </mxCell>
        <mxCell id="WKujFb5WWhuqKsfGvpPh-103" value="" style="endArrow=classic;html=1;rounded=0;exitX=0.75;exitY=1;exitDx=0;exitDy=0;entryX=0.73;entryY=-0.013;entryDx=0;entryDy=0;entryPerimeter=0;" parent="1" source="WKujFb5WWhuqKsfGvpPh-27" target="WKujFb5WWhuqKsfGvpPh-88" edge="1">
          <mxGeometry width="50" height="50" relative="1" as="geometry">
            <mxPoint x="660" y="540" as="sourcePoint" />
            <mxPoint x="710" y="530" as="targetPoint" />
          </mxGeometry>
        </mxCell>
        <mxCell id="WKujFb5WWhuqKsfGvpPh-109" value="&#xa;&lt;span style=&quot;color: rgb(0, 0, 0); font-family: Helvetica; font-size: 12px; font-style: normal; font-variant-ligatures: normal; font-variant-caps: normal; font-weight: 400; letter-spacing: normal; orphans: 2; text-align: center; text-indent: 0px; text-transform: none; widows: 2; word-spacing: 0px; -webkit-text-stroke-width: 0px; background-color: rgb(251, 251, 251); text-decoration-thickness: initial; text-decoration-style: initial; text-decoration-color: initial; float: none; display: inline !important;&quot;&gt;user dash board&lt;/span&gt;&#xa;&#xa;" style="ellipse;shape=cloud;whiteSpace=wrap;html=1;" parent="1" vertex="1">
          <mxGeometry x="-20" y="600" width="120" height="80" as="geometry" />
        </mxCell>
        <mxCell id="WKujFb5WWhuqKsfGvpPh-110" value="&lt;br&gt;&lt;span style=&quot;color: rgb(0, 0, 0); font-family: Helvetica; font-size: 12px; font-style: normal; font-variant-ligatures: normal; font-variant-caps: normal; font-weight: 400; letter-spacing: normal; orphans: 2; text-align: center; text-indent: 0px; text-transform: none; widows: 2; word-spacing: 0px; -webkit-text-stroke-width: 0px; background-color: rgb(251, 251, 251); text-decoration-thickness: initial; text-decoration-style: initial; text-decoration-color: initial; float: none; display: inline !important;&quot;&gt;admin dash board&lt;/span&gt;&lt;br&gt;" style="ellipse;shape=cloud;whiteSpace=wrap;html=1;" parent="1" vertex="1">
          <mxGeometry x="810" y="620" width="125" height="80" as="geometry" />
        </mxCell>
      </root>
    </mxGraphModel>
  </diagram>
</mxfile>
